<svg width="26" height="32" viewBox="0 0 26 32" fill="none" xmlns="http://www.w3.org/2000/svg">
<g clip-path="url(#clip0_105102_3130)">
<path d="M12.67 1C19.1 1 24.34 6.23 24.34 12.67C24.34 19.68 15.21 28.39 12.67 30.67C10.13 28.39 1 19.68 1 12.67C1 6.23 6.23 1 12.67 1ZM12.67 0C5.67 0 0 5.67 0 12.67C0 21.34 12.67 32 12.67 32C12.67 32 25.34 21.33 25.34 12.67C25.33 5.67 19.66 0 12.67 0Z" fill="#70E61C"/>
<path d="M12.67 8C14.69 8 16.34 9.64 16.34 11.67C16.34 13.7 14.7 15.34 12.67 15.34C10.64 15.34 9 13.7 9 11.67C9 9.64 10.64 8 12.67 8ZM12.67 7C10.09 7 8 9.09 8 11.67C8 14.25 10.09 16.34 12.67 16.34C15.25 16.34 17.34 14.25 17.34 11.67C17.34 9.09 15.25 7 12.67 7Z" fill="#70E61C"/>
</g>
<defs>
<clipPath id="clip0_105102_3130">
<rect width="25.33" height="32" fill="white"/>
</clipPath>
</defs>
</svg>
