<svg width="48" height="48" viewBox="0 0 48 48" fill="none" xmlns="http://www.w3.org/2000/svg">
<path d="M28.514 34.5V35C28.514 37.4849 26.4956 39.4998 24.0004 39.5C21.5049 39.5 19.4857 37.485 19.4857 35V34.5H28.514ZM24.0004 8.5C29.8171 8.50023 34.5304 13.2022 34.5306 19.0059C34.5306 21.0921 33.9209 23.0307 32.8685 24.666L32.6527 24.9893C32.3436 25.4332 32.0212 25.8718 31.6947 26.3164L31.6937 26.3184C30.5407 27.9001 29.3179 29.5608 28.6527 31.4941H19.35C18.6903 29.5628 17.4667 27.8947 16.306 26.3105H16.3051C15.9785 25.866 15.6562 25.4273 15.347 24.9834V24.9824L15.1302 24.6602C14.0786 23.03 13.4691 21.0865 13.4691 19C13.4691 13.2025 18.1832 8.5 24.0004 8.5ZM24.0004 11.5C19.846 11.5 16.4799 14.8538 16.4799 19C16.4799 19.8273 17.1566 20.4998 17.9828 20.5C18.8092 20.5 19.4857 19.8275 19.4857 19C19.4857 16.515 21.5049 14.5 24.0004 14.5C24.8265 14.4998 25.5023 13.8273 25.5023 13C25.5023 12.1727 24.8265 11.5002 24.0004 11.5Z" stroke="#70E61C"/>
</svg>
