<svg width="48" height="48" viewBox="0 0 48 48" fill="none" xmlns="http://www.w3.org/2000/svg">
<g clip-path="url(#clip0_105102_3133)">
<path d="M24 1C33.93 1 42 9.07 42 19C42 30.06 27.29 43.75 24 46.67C20.71 43.75 6 30.06 6 19C6 9.07 14.07 1 24 1ZM24 0C13.51 0 5 8.51 5 19C5 32 24 48 24 48C24 48 43 32 43 19C43 8.51 34.49 0 24 0Z" fill="#70E61C"/>
<path d="M24 11.58C27.27 11.58 29.92 14.24 29.92 17.5C29.92 20.76 27.26 23.42 24 23.42C20.74 23.42 18.08 20.76 18.08 17.5C18.08 14.24 20.74 11.58 24 11.58ZM24 10.5C20.13 10.5 17 13.63 17 17.5C17 21.37 20.13 24.5 24 24.5C27.87 24.5 31 21.37 31 17.5C31 13.63 27.87 10.5 24 10.5Z" fill="#70E61C"/>
</g>
<defs>
<clipPath id="clip0_105102_3133">
<rect width="38" height="48" fill="white" transform="translate(5)"/>
</clipPath>
</defs>
</svg>
