<svg width="341" height="759" viewBox="0 0 341 759" fill="none" xmlns="http://www.w3.org/2000/svg">
<g filter="url(#filter0_f_105147_4242)">
<path d="M106.497 533C48.1302 445.477 197.439 354.917 205.997 343.5C205.997 343.5 72.4972 208 267.497 220C462.497 232 385.997 93 385.997 93L537.182 244C537.182 244 310 260.294 363.378 436.39C384.073 504.661 430.486 545.591 479.565 570.119C518.807 523.277 558.662 456.455 597.885 363.785C805.538 -126.825 641.238 606.679 641.238 606.679C641.238 606.679 557.077 608.855 479.565 570.119C311.052 771.266 153.839 603.991 106.497 533Z" fill="#1CDAE6"/>
</g>
<defs>
<filter id="filter0_f_105147_4242" x="0" y="0" width="795.931" height="758.853" filterUnits="userSpaceOnUse" color-interpolation-filters="sRGB">
<feFlood flood-opacity="0" result="BackgroundImageFix"/>
<feBlend mode="normal" in="SourceGraphic" in2="BackgroundImageFix" result="shape"/>
<feGaussianBlur stdDeviation="46.5" result="effect1_foregroundBlur_105147_4242"/>
</filter>
</defs>
</svg>
