<svg width="442" height="751" viewBox="0 0 442 751" fill="none" xmlns="http://www.w3.org/2000/svg">
<g filter="url(#filter0_f_105147_4241)">
<path d="M-84.9804 166.619C-33.4583 81.9639 107.31 108.379 121.376 112.08C121.376 112.08 231.27 43.787 176.257 169.062C121.243 294.338 347.423 237.594 347.423 237.594L243.919 431.487C243.919 431.487 189.612 278.765 56.8592 390.695C27.5058 415.444 6.7808 442.252 -7.69637 468.997C35.1494 475.736 87.3083 480.161 150.401 481.708C682.101 494.748 -32.1642 656.652 -32.1642 656.652C-32.1642 656.652 -58.6932 563.209 -7.69637 468.997C-325.925 418.945 -130.389 241.229 -84.9804 166.619Z" fill="#9747FF"/>
<path d="M-84.9804 166.619C-33.4583 81.9639 107.31 108.379 121.376 112.08C121.376 112.08 231.27 43.787 176.257 169.062C121.243 294.338 347.423 237.594 347.423 237.594L243.919 431.487C243.919 431.487 189.612 278.765 56.8592 390.695C-75.8935 502.625 -32.1642 656.652 -32.1642 656.652C-32.1642 656.652 682.101 494.748 150.401 481.708C-381.3 468.668 -136.503 251.274 -84.9804 166.619Z" stroke="black"/>
</g>
<defs>
<filter id="filter0_f_105147_4241" x="-279.512" y="0" width="720.908" height="750.244" filterUnits="userSpaceOnUse" color-interpolation-filters="sRGB">
<feFlood flood-opacity="0" result="BackgroundImageFix"/>
<feBlend mode="normal" in="SourceGraphic" in2="BackgroundImageFix" result="shape"/>
<feGaussianBlur stdDeviation="46.5" result="effect1_foregroundBlur_105147_4241"/>
</filter>
</defs>
</svg>
