<svg width="32" height="32" viewBox="0 0 32 32" fill="none" xmlns="http://www.w3.org/2000/svg">
<path d="M15.993 18.4443C17.5676 18.4443 18.844 17.1674 18.844 15.5922C18.844 14.017 17.5676 12.74 15.993 12.74C14.4185 12.74 13.1421 14.017 13.1421 15.5922C13.1421 17.1674 14.4185 18.4443 15.993 18.4443Z" fill="#61DAFB"/>
<path d="M31.9861 15.5921C31.9861 13.3521 29.3577 11.4043 25.269 10.2356C26.2981 6.1034 25.9365 2.84775 23.9896 1.7347C22.0426 0.607748 19.0526 1.92949 15.993 4.87905C12.9335 1.91557 9.9435 0.607748 7.99652 1.7347C6.38331 2.66688 5.78531 5.0321 6.32768 8.39905C6.42503 8.99731 6.5641 9.60949 6.71708 10.2495C2.62842 11.4182 0 13.366 0 15.606C0 17.846 2.62842 19.7799 6.71708 20.9625C6.5641 21.5886 6.42503 22.2147 6.32768 22.813C5.78531 26.1799 6.38331 28.5451 7.99652 29.4773C8.46936 29.7556 9.01173 29.8947 9.60973 29.8947C11.0282 29.8947 12.7388 29.1156 14.6023 27.5991C15.0613 27.2234 15.5341 26.7921 15.993 26.3469C16.452 26.7921 16.9248 27.2234 17.3837 27.5991C19.2473 29.1156 20.9578 29.8947 22.3764 29.8947C22.9744 29.8947 23.5167 29.7556 23.9896 29.4773C25.6028 28.5451 26.2008 26.1799 25.6723 22.813C25.575 22.2147 25.4359 21.6025 25.2829 20.9625C29.3716 19.7938 32 17.846 32 15.606L31.9861 15.5921ZM23.2942 2.93123C24.5458 3.6547 24.824 6.29818 23.92 9.88775C22.6128 9.58166 21.1804 9.35905 19.6645 9.21992C18.7884 7.98166 17.8705 6.8547 16.9665 5.86688C19.0804 3.82166 21.0413 2.70862 22.3903 2.70862C22.7379 2.70862 23.0439 2.77818 23.3081 2.93123H23.2942ZM20.4572 18.166C19.9565 19.0147 19.442 19.8495 18.9135 20.6286C17.9817 20.6982 17.0083 20.7399 16.007 20.7399C15.0056 20.7399 14.0322 20.6982 13.1004 20.6286C12.5719 19.8495 12.0435 19.0147 11.5567 18.166C11.0561 17.3034 10.611 16.4547 10.1938 15.5921C10.611 14.7295 11.0561 13.8808 11.5567 13.0182C12.0574 12.1417 12.5858 11.3208 13.1004 10.5556C14.0322 10.486 15.0056 10.4443 16.007 10.4443C17.0083 10.4443 17.9817 10.486 18.9135 10.5556C19.442 11.3208 19.9565 12.1417 20.4572 13.0182C20.9439 13.8669 21.4029 14.7295 21.8201 15.5921C21.4168 16.4408 20.9718 17.2895 20.4572 18.166ZM22.5432 17.2199C22.9326 18.1521 23.2664 19.0564 23.5445 19.9469C22.6545 20.1417 21.6949 20.3225 20.6797 20.4477C21.0135 19.933 21.3333 19.4043 21.6532 18.8617C21.9731 18.3191 22.2651 17.7625 22.5432 17.2199ZM15.993 24.3156C15.3672 23.6338 14.7414 22.8825 14.1295 22.0756C14.7414 22.1034 15.3533 22.1173 15.993 22.1173C16.6328 22.1173 17.2447 22.1034 17.8566 22.0756C17.2447 22.8825 16.6189 23.6199 15.993 24.3156ZM11.3064 20.4477C10.2912 20.3225 9.33159 20.1556 8.44155 19.9469C8.71969 19.0564 9.05345 18.1521 9.44285 17.2199C9.72099 17.7625 10.013 18.3191 10.3329 18.8617C10.6528 19.4043 10.9726 19.933 11.3064 20.4477ZM9.44285 13.9504C9.05345 13.0182 8.71969 12.1138 8.44155 11.2234C9.33159 11.0286 10.2912 10.8477 11.3064 10.7225C10.9726 11.2373 10.6528 11.766 10.3329 12.3086C10.013 12.8512 9.72099 13.3938 9.44285 13.9504ZM15.993 6.8547C16.605 7.52253 17.2308 8.27383 17.8566 9.0947C17.2447 9.06688 16.6328 9.05297 15.993 9.05297C15.3533 9.05297 14.7414 9.06688 14.1295 9.0947C14.7553 8.27383 15.3672 7.52253 15.993 6.8547ZM21.6532 12.3225C21.3333 11.7799 21.0135 11.2512 20.6797 10.7364C21.6949 10.8617 22.6545 11.0286 23.5445 11.2373C23.2803 12.1138 22.9465 13.0182 22.5432 13.9643C22.2651 13.4217 21.9591 12.8651 21.6532 12.3225ZM7.69057 8.17644C7.25945 5.4634 7.62103 3.55731 8.69187 2.94514C8.95611 2.7921 9.26206 2.72253 9.60973 2.72253C10.9587 2.72253 12.9196 3.83557 15.0335 5.88079C14.1156 6.86862 13.2116 7.99557 12.3355 9.23383C10.8196 9.37296 9.38722 9.59557 8.07996 9.90166C7.92699 9.31731 7.80183 8.73296 7.71838 8.19036L7.69057 8.17644ZM1.3907 15.5921C1.3907 14.1451 3.53238 12.5869 7.09257 11.5712C7.49587 12.8651 8.02434 14.2147 8.65015 15.5921C8.02434 16.9556 7.49587 18.3051 7.09257 19.613C3.54628 18.5973 1.3907 17.053 1.3907 15.5921ZM13.7262 26.486C11.5984 28.2112 9.76271 28.8512 8.69187 28.2391C7.62103 27.6269 7.25945 25.7069 7.69057 23.0077C7.77401 22.4512 7.91308 21.8808 8.05215 21.2964C9.35941 21.6025 10.7918 21.8251 12.3077 21.9643C13.1838 23.1886 14.0878 24.3295 15.0056 25.3312C14.5745 25.7486 14.1434 26.1521 13.7123 26.4999L13.7262 26.486ZM24.2955 23.0077C24.7266 25.7208 24.3651 27.6269 23.2942 28.2391C22.2234 28.8512 20.3877 28.2112 18.2599 26.486C17.8288 26.1382 17.3977 25.7347 16.9665 25.3173C17.8983 24.3156 18.8023 23.1886 19.6645 21.9643C21.1804 21.8251 22.6128 21.6025 23.92 21.2964C24.073 21.8808 24.1982 22.4651 24.2816 23.0077H24.2955ZM24.8935 19.5991C24.4902 18.3051 23.9618 16.9556 23.3359 15.5782C23.9757 14.1869 24.4902 12.8373 24.8935 11.5573C28.4537 12.573 30.5954 14.1173 30.5954 15.5782C30.5954 17.0391 28.4537 18.5834 24.8935 19.5991Z" fill="#61DAFB"/>
</svg>
