<svg width="28" height="40" viewBox="0 0 28 40" fill="none" xmlns="http://www.w3.org/2000/svg">
<path d="M19.5557 33V33.75C19.5557 36.9257 16.9761 39.5 13.7881 39.5C10.6003 39.4998 8.02148 36.9255 8.02148 33.75V33H19.5557ZM13.7881 0.5C21.1281 0.5 27.0771 6.43353 27.0771 13.7578C27.0771 16.5658 26.2018 19.1619 24.707 21.3076C24.3195 21.8641 23.9158 22.4142 23.5078 22.9697L23.5068 22.9707C22.0462 24.9744 20.5125 27.0613 19.6953 29.4922H7.88574C7.07579 27.0641 5.54049 24.9685 4.07031 22.9619H4.06934C3.86537 22.6842 3.66222 22.4082 3.46191 22.1318L2.87012 21.2998C1.37589 19.1626 0.5 16.5586 0.5 13.75C0.5 6.43386 6.44808 0.500245 13.7881 0.5ZM13.7881 4.5C8.66398 4.50024 4.51367 8.63675 4.51367 13.75C4.51367 14.715 5.30333 15.5 6.26758 15.5C7.2318 15.5 8.02148 14.7149 8.02148 13.75C8.02148 10.5745 10.6003 8.00024 13.7881 8C14.7523 8 15.542 7.21496 15.542 6.25C15.542 5.28504 14.7523 4.5 13.7881 4.5Z" stroke="#70E61C"/>
</svg>
